<svg id="Camada_2" data-name="Camada 2" xmlns="http://www.w3.org/2000/svg" xmlns:xlink="http://www.w3.org/1999/xlink" viewBox="0 0 1000 1208.39">
  <defs>
    <style>
      .cls-1 {
        fill: none;
      }

      .cls-2 {
        clip-path: url(#clip-path);
      }

      .cls-3 {
        fill: #f94e6b;
      }

      .cls-4 {
        fill: #fff;
      }
    </style>
    <clipPath id="clip-path" transform="translate(-5.86 193.34)">
      <circle class="cls-1" cx="505.86" cy="503.57" r="500"/>
    </clipPath>
  </defs>
  <g class="cls-2">
    <circle class="cls-3" cx="500" cy="696.91" r="500"/>
    <g class="cls-2">
      <path class="cls-4" d="M928.13,818.41V973c-40.34,30.26-95.81,42-144.54,42-112.6,0-184.87-100.84-184.87-205V599.92c0-50.42-26.89-94.11-82.35-94.11-63.87,0-100.84,52.1-114.29,117.64V999.92H210.49V-193.34H402.08v616.8c38.66-52.1,102.52-75.63,164.7-75.63,131.1,0,223.53,105.88,223.53,231.93v205c0,38.65,31.94,60.5,67.22,60.5C882.74,845.3,908,835.22,928.13,818.41Z" transform="translate(-5.86 193.34)"/>
    </g>
    <path class="cls-4" d="M400.81,747.27c0-47.9-.25-96.86,9.22-144,5.15-25.69,12.3-43.35,27.57-64.45,18.93-26.18,42.4-48.69,61.19-75,3.93-5.52,4-15.7,0-21.21L390.32,294.17l-15.34-21c-12.81-17.52-36.59-10.47-39.15,10.6C331.06,323,340.13,368.2,356.51,404c16.29,35.6,52,60.48,91.81,52.78l-11.17-40.51c-34.93,9.55-50.73-48.59-56.71-72.07-10.23-40.19-11.51-81.84-12.9-123.09l-31.62,18.14,24.46,14.68L350,235.8c2.43,54.61-4,115,28.95,162.54,14.55,21,35.48,37.45,60.62,43.5a90.81,90.81,0,0,0,36.92,1.24c15.71-2.7,27.88-8.8,32-25l-41.26-5.58-3,24c-1.1,8.8,7.3,18.24,15.43,20.26l8.11,2,5.58-41.27c-26.38-2.3-51.09-18.67-64.38-41.4-8.32-14.22-11.54-30.85-13.78-47-2.66-19.14-4.65-38.43-6.59-57.65-4.84-47.73-4.2-95.62-6.32-143.5-1.19-26.89-41.9-27.2-42,0-.27,63.21,6.55,130.89,28.15,190.69,9.17,25.38,22.22,50.07,43.95,66.83,25.64,19.76,55.65,19.67,86.55,18.17,30.47-1.47,62.39-1.75,88.48,16.23,12.08,8.33,26.5-.84,30.86-12.56l7.83-21c4.1-11-4.67-22.51-14.68-25.84-74.55-24.82-149.18,7.15-216.33,38.18-18,8.33-10.12,32.73,5,38.4L536.7,480.67c11.94,4.47,28-7.32,26.59-20.26-1.23-11.42-.84-22.26,2.44-33.29,1.53-5.15,3.27-9.74,4.3-15l5.57-28.32c2.73-13.92-9.67-32.34-25.85-25.84-32.56,13.08-66.81,4.82-94.84-15-30.81-21.8-47.71-57.79-56.47-93.5-10.36-42.24-9.48-86-8.39-129.19.63-24.71,1.42-49.44.53-74.15-.2-5.85.27-12.72-1-18.49,0,0-1.06-7.52-1.41-2.7,0-.19.17-.38.18-.58.09-2.81,2.11-6.61,3-9.26l19.32-60.52L369.38-51c-8,73.84-16.1,148.61-7.57,222.79,7.14,62.1,23.78,129.91,77.08,168.7,54.68,39.81,124.67,16.56,184.77,37.73,49.24,17.35,86.05,63.64,104.64,111,29,73.83,23.18,155.48,18.27,233-1.71,27,40.31,26.89,42,0,4.53-71.6,8.62-144.94-10.23-215C763,450,730.3,396.83,681.87,362a181.41,181.41,0,0,0-80.3-32.11c-32.19-4.59-65.28-1.72-97.24-7.65-27.89-5.18-50.9-18.65-66.72-42.51s-24-51.58-29.37-79.5C392.45,117.46,402.39,31.91,411.4-51c1.11-10.24-8.85-19.52-18.22-20.63-10.55-1.26-19.8,4.86-23.05,15L351.52,1.7c-1.14,3.54-2.5,7.09-3.42,10.69-2.26,8.81-.21,18.57.22,27.57,1.24,26.08.44,52.19-.23,78.26-2.32,90.66,1.29,197.49,80.66,257.39,36.9,27.85,88.13,40.58,132.17,22.88l-25.84-25.84-5.86,29.81c-1.15,5.89-3.52,11.28-5,17.09a115.77,115.77,0,0,0-3,40.86l26.6-20.26L431.2,396.47l5,38.4c56.94-26.31,120.69-55,183.95-33.94L605.5,375.08l-7.83,21.05,30.86-12.56C599,363.23,562.2,360.1,527.37,361.25c-17.36.57-36.07,3.85-53.09-.76-12.33-3.34-22.22-11.66-29.55-21.95-18.64-26.16-25.33-60.16-31.44-91a600.71,600.71,0,0,1-11.07-119.59h-42c1.61,36.3.91,72.76,3.35,109,2.32,34.48,6.18,69.06,11.07,103.27,4.25,29.79,14.2,57.45,35,79.71,22,23.45,51.89,36.83,83.63,39.6,23.77,2.08,28.29-35.64,5.59-41.27l-8.11-2,15.42,20.26,3-24c1.28-10.22-9-19.54-18.21-20.64-10.08-1.2-20.45,4.73-23.05,15.05q-.69,2.7-1.36,5.4l9.65-12.55c-18.08,8.23-40.62-1-53.73-14.14-16.59-16.6-24-40.59-27.23-63.31-2.14-14.92-2.27-30.19-2.46-45.23-.1-8.25-.11-16.51-.27-24.76-.17-8.52,1-19.53-3.4-27.09-5.94-10.14-22.27-16.37-32-22.21-13.36-8-32.15,2.2-31.61,18.14,1.72,50.95,3.59,103.31,19.6,152.16,14.59,44.51,47.83,98.65,103.2,83.51,26.37-7.2,15.12-45.59-11.17-40.51-24.25,4.68-41-22.65-47.45-41.74-9.71-28.73-15.53-60.48-11.85-90.75L338.7,294.4,447.17,442.77l15.34,21V442.55c-19.45,27.29-44,50.52-63.27,78-15.31,21.76-24.51,45.59-29.73,71.58C359.29,643,358.8,695.52,358.8,747.27c0,27,42,27.08,42,0Z" transform="translate(-5.86 193.34)"/>
  </g>
</svg>
